<svg version="1.0" xmlns="http://www.w3.org/2000/svg"
 width="1042.000000pt" height="1280.000000pt" viewBox="0 0 1042.000000 1280.000000"
 preserveAspectRatio="xMidYMid meet">
<metadata>
Created by potrace 1.15, written by Peter Selinger 2001-2017
</metadata>
<g transform="translate(0.000000,1280.000000) scale(0.100000,-0.100000)"
fill="#FC7323" stroke="none">
<path d="M4420 12795 c-8 -2 -49 -9 -90 -15 -406 -65 -776 -358 -944 -746 -38
-87 -86 -243 -86 -280 0 -12 -4 -25 -8 -28 -5 -3 -51 -12 -104 -20 -217 -35
-422 -135 -578 -282 -98 -93 -162 -179 -221 -299 -43 -89 -99 -266 -99 -316 0
-18 -10 -23 -72 -33 -60 -11 -158 -45 -233 -83 -241 -121 -414 -336 -487 -604
-19 -71 -23 -107 -22 -234 1 -174 19 -256 84 -394 101 -211 280 -381 488 -466
414 -168 877 -28 1139 344 1 2 33 -10 70 -27 133 -61 219 -77 403 -77 178 1
222 9 373 67 84 32 111 30 62 -5 -140 -102 -229 -204 -295 -342 -60 -124 -80
-201 -87 -335 -18 -344 166 -661 472 -813 275 -137 607 -118 861 49 58 38 181
153 221 207 l21 27 72 -30 c126 -54 220 -73 360 -73 142 0 235 17 343 63 l71
30 31 -29 c41 -39 166 -122 240 -158 177 -88 320 -123 531 -130 239 -8 410 26
607 121 180 86 379 258 487 420 90 134 170 327 186 450 l7 44 86 27 c360 112
659 381 794 717 264 654 -109 1395 -821 1627 -153 50 -250 65 -432 65 -170 0
-272 -13 -401 -53 l-60 -19 8 46 c4 26 8 130 7 232 -1 165 -4 195 -27 282 -30
112 -93 266 -145 353 -102 170 -273 348 -437 457 -115 75 -153 95 -262 139
-214 86 -381 114 -628 106 -232 -7 -380 -42 -581 -137 l-100 -47 -72 42 c-133
78 -311 137 -472 155 -78 9 -225 12 -260 5z"/>
<path d="M1638 8670 c-353 -8 -363 -10 -372 -72 -2 -18 -12 -181 -20 -363 -32
-648 -240 -4222 -247 -4229 -2 -2 -220 -8 -483 -12 l-479 -9 -19 -26 c-19 -25
-19 -36 -4 -620 33 -1243 48 -1822 66 -2506 20 -803 19 -783 47 -811 l25 -25
671 7 c370 3 1327 11 2127 16 1900 12 2332 18 2344 30 7 7 900 10 2543 10
l2534 0 24 25 25 24 0 1816 0 1816 -25 24 c-13 14 -34 25 -45 25 -12 0 -501
-208 -1088 -461 -587 -254 -1074 -464 -1082 -466 -14 -4 -19 58 -43 494 -30
547 -30 545 -93 551 -20 2 -446 -171 -1374 -559 -740 -309 -1353 -563 -1362
-566 -17 -5 -18 15 -19 313 -1 176 -4 448 -8 606 -5 258 -8 289 -24 305 -17
17 -52 18 -535 18 l-517 0 -27 370 c-118 1627 -229 3124 -234 3140 -12 45 -31
48 -454 72 -223 12 -418 20 -433 17 -42 -9 -54 -38 -61 -154 -10 -162 -176
-3410 -176 -3437 0 -23 -1 -23 -120 -23 -116 0 -120 1 -124 23 -3 12 -95 1032
-206 2267 -110 1235 -203 2264 -207 2288 -3 23 -13 53 -23 65 -22 27 -49 28
-502 17z"/>
</g>
</svg>